<svg width="37" height="34" viewBox="0 0 37 34" fill="none" xmlns="http://www.w3.org/2000/svg">
<path d="M21.3632 2.44169L18.5028 6.28259L14.5197 1.88097L10.5947 0.619385L7.34256 1.62867L4.39883 3.03045L2.32419 6.81525L1.67969 13.5158L3.86715 20.0761L7.65195 25.6552L11.6896 28.8232L18.1384 32.9444L20.5495 31.795L24.7829 28.8232L29.0163 25.3468L31.5395 22.6273L34.1748 18.0575L35.6607 11.5813C35.3803 10.301 34.7579 7.62268 34.5112 7.15168C34.2645 6.68068 32.6328 4.05842 31.8478 2.80616L27.6145 1.37638H23.8297L21.3632 2.44169Z" fill="#E5E7EB" stroke="#4B5563" stroke-width="0.772823"/>
<path d="M33.5383 3.61592C31.6987 1.37334 29.0439 0.17911 25.861 0.164185C25.8479 0.164185 25.833 0.164185 25.82 0.164185C22.124 0.164185 19.7079 2.47223 18.4355 4.5301C17.1575 2.4629 14.7639 0.194036 11.0082 0.164185C7.8309 0.17911 5.17776 1.3733 3.33631 3.61774C1.03963 6.41817 0.181394 10.7503 1.04335 15.2037C3.29899 26.8289 17.4485 33.3906 18.0492 33.6649C18.1705 33.7209 18.3049 33.7487 18.4355 33.7487C18.5661 33.7487 18.7005 33.7209 18.8218 33.6649C19.4225 33.3925 33.572 26.8308 35.8258 15.2037C36.6896 10.7465 35.835 6.41634 33.5383 3.61592ZM33.9918 14.8475C32.1186 24.5081 20.6912 30.65 18.4337 31.7769C16.1743 30.6518 4.75065 24.5212 2.87375 14.8475C2.11441 10.9333 2.82528 7.17757 4.77681 4.80066C6.27497 2.97414 8.37388 2.04108 11.0157 2.02989C11.0288 2.02989 11.0398 2.02989 11.051 2.02989C15.8216 2.02989 17.4821 6.76686 17.5512 6.96836C17.678 7.3471 18.0344 7.60286 18.4355 7.60286H18.4373C18.8384 7.601 19.1929 7.34528 19.3217 6.96654C19.3384 6.91616 21.0214 2.02989 25.82 2.02989C25.8312 2.02989 25.8424 2.02989 25.8555 2.02989C28.5011 2.04295 30.6018 2.97373 32.098 4.79838C34.044 7.17343 34.753 10.9314 33.9918 14.8475ZM28.695 16.9555C28.695 17.4705 28.2771 17.8884 27.7622 17.8884H24.5307L21.0755 23.0696C20.9002 23.3308 20.6091 23.4855 20.2994 23.4855C20.2602 23.4855 20.2172 23.4838 20.1762 23.4782C19.8235 23.4316 19.527 23.1869 19.415 22.8492L16.2862 13.4646L13.6127 17.4743C13.4392 17.7337 13.1481 17.8902 12.8366 17.8902H9.10515C8.59021 17.8902 8.17229 17.4723 8.17229 16.9574C8.17229 16.4424 8.59021 16.0245 9.10515 16.0245H12.3366L15.7918 10.8437C15.9877 10.5489 16.3255 10.3884 16.6912 10.4369C17.0438 10.4836 17.3404 10.7278 17.4523 11.0655L20.5811 20.4501L23.2546 16.4408C23.4281 16.1815 23.7192 16.0245 24.0308 16.0245H27.7622C28.2771 16.0226 28.695 16.4406 28.695 16.9555Z" fill="#4B5563"/>
<path d="M28.6985 16.955C28.6985 17.4699 28.2806 17.8879 27.7657 17.8879H24.5342L21.079 23.0691C20.9037 23.3303 20.6126 23.485 20.3029 23.485C20.2637 23.485 20.2207 23.4833 20.1797 23.4777C19.827 23.431 19.5305 23.1863 19.4185 22.8486L16.2897 13.4641L13.6162 17.4738C13.4427 17.7331 13.1516 17.8897 12.84 17.8897H9.10863C8.5937 17.8897 8.17578 17.4718 8.17578 16.9568C8.17578 16.4419 8.5937 16.024 9.10863 16.024H12.3401L15.7953 10.8432C15.9912 10.5484 16.329 10.3879 16.6947 10.4364C17.0473 10.4831 17.3439 10.7273 17.4558 11.065L20.5846 20.4496L23.2581 16.4403C23.4316 16.181 23.7227 16.024 24.0343 16.024H27.7657C28.2806 16.0221 28.6985 16.4401 28.6985 16.955Z" fill="#4B5563"/>
</svg>
