<svg width="23" height="27" viewBox="0 0 23 27" fill="none" xmlns="http://www.w3.org/2000/svg">
<path d="M1.38086 25.5386V15.7176V25.5386ZM1.38086 15.7176V3.44128C1.38086 3.44128 5.88216 -0.241602 11.6111 3.44128C17.34 7.12416 21.8413 3.44128 21.8413 3.44128V15.7176C21.8413 15.7176 17.34 19.4004 11.6111 15.7176C5.88216 12.0347 1.38086 15.7176 1.38086 15.7176Z" fill="#F2F4F8"/>
<path d="M1.38086 25.5386V15.7176M1.38086 15.7176V3.44128C1.38086 3.44128 5.88216 -0.241602 11.6111 3.44128C17.34 7.12416 21.8413 3.44128 21.8413 3.44128V15.7176C21.8413 15.7176 17.34 19.4004 11.6111 15.7176C5.88216 12.0347 1.38086 15.7176 1.38086 15.7176Z" stroke="#4B5563" stroke-width="2" stroke-linecap="round" stroke-linejoin="round"/>
</svg>
